<!DOCTYPE html><svg xmlns="http://www.w3.org/2000/svg" viewBox=" 0 0 388 228" ><svg width="388" height="228" id="u4S" data="coO!ยง-" class="reactchart"  ><g ><g ><g class="" ><g ><line class="" stroke="black" stroke-width="1" x1="40" x2="383" y1="214.25" y2="214.25" ></line></g><g class="" ><g ><line class="" x1="58.79452060833687" x2="58.79452060833687" y1="214.25" y2="5" stroke="LightGray" stroke-width="0.5" ></line><line class="" x1="58.79452060833687" x2="58.79452060833687" y1="216" y2="209" stroke="black" stroke-width="0.3" ></line></g><g ><line class="" x1="115.49132444348642" x2="115.49132444348642" y1="216" y2="209" stroke="black" stroke-width="0.3" ></line><text class="" x="87.45616453605058" y="224" transform=" rotate(0 87.45616453605058 224)" text-anchor="middle" fill="black" font-size="8pt" >S1/17</text></g><g ><line class="" x1="173.1278543090528" x2="173.1278543090528" y1="214.25" y2="5" stroke="LightGray" stroke-width="0.5" ></line><line class="" x1="173.1278543090528" x2="173.1278543090528" y1="216" y2="209" stroke="black" stroke-width="0.3" ></line><text class="" x="144.77945239147803" y="224" transform=" rotate(0 144.77945239147803 224)" text-anchor="middle" fill="black" font-size="8pt" >S2/17</text></g><g ><line class="" x1="229.82465814420235" x2="229.82465814420235" y1="216" y2="209" stroke="black" stroke-width="0.3" ></line><text class="" x="201.78949823676652" y="224" transform=" rotate(0 201.78949823676652 224)" text-anchor="middle" fill="black" font-size="8pt" >S1/18</text></g><g ><line class="" x1="287.46118800976876" x2="287.46118800976876" y1="214.25" y2="5" stroke="LightGray" stroke-width="0.5" ></line><line class="" x1="287.46118800976876" x2="287.46118800976876" y1="216" y2="209" stroke="black" stroke-width="0.3" ></line><text class="" x="259.11278609219397" y="224" transform=" rotate(0 259.11278609219397 224)" text-anchor="middle" fill="black" font-size="8pt" >S2/18</text></g><g ><line class="" x1="344.1579918449183" x2="344.1579918449183" y1="216" y2="209" stroke="black" stroke-width="0.3" ></line><text class="" x="316.1228319374825" y="224" transform=" rotate(0 316.1228319374825 224)" text-anchor="middle" fill="black" font-size="8pt" >S1/19</text></g><g ><text class="" x="373.4461197929099" y="224" transform=" rotate(0 373.4461197929099 224)" text-anchor="middle" fill="black" font-size="8pt" >S2/19</text></g></g></g><g class="" ><g ><line class="" stroke="black" stroke-width="1" x1="40" x2="40" y1="214.25" y2="5" ></line></g><g class="" ><g ><line class="" x1="38.25" x2="45.25" y1="204.25" y2="204.25" stroke="black" stroke-width="0.3" ></line><text class="" x="34.25" y="206.25" transform=" rotate(0 34.25 206.25)" text-anchor="end" fill="black" font-size="8pt" >0.0%</text></g><g ><line class="" x1="38.25" x2="45.25" y1="181.60938793613258" y2="181.60938793613258" stroke="black" stroke-width="0.3" ></line><text class="" x="34.25" y="183.60938793613258" transform=" rotate(0 34.25 183.60938793613258)" text-anchor="end" fill="black" font-size="8pt" >5.0%</text></g><g ><line class="" x1="38.25" x2="45.25" y1="158.96877587226513" y2="158.96877587226513" stroke="black" stroke-width="0.3" ></line><text class="" x="34.25" y="160.96877587226513" transform=" rotate(0 34.25 160.96877587226513)" text-anchor="end" fill="black" font-size="8pt" >10.0%</text></g><g ><line class="" x1="38.25" x2="45.25" y1="136.32816380839768" y2="136.32816380839768" stroke="black" stroke-width="0.3" ></line><text class="" x="34.25" y="138.32816380839768" transform=" rotate(0 34.25 138.32816380839768)" text-anchor="end" fill="black" font-size="8pt" >15.0%</text></g><g ><line class="" x1="38.25" x2="45.25" y1="113.68755174453025" y2="113.68755174453025" stroke="black" stroke-width="0.3" ></line><text class="" x="34.25" y="115.68755174453025" transform=" rotate(0 34.25 115.68755174453025)" text-anchor="end" fill="black" font-size="8pt" >20.0%</text></g><g ><line class="" x1="38.25" x2="45.25" y1="91.04693968066283" y2="91.04693968066283" stroke="black" stroke-width="0.3" ></line><text class="" x="34.25" y="93.04693968066283" transform=" rotate(0 34.25 93.04693968066283)" text-anchor="end" fill="black" font-size="8pt" >25.0%</text></g><g ><line class="" x1="38.25" x2="45.25" y1="68.40632761679538" y2="68.40632761679538" stroke="black" stroke-width="0.3" ></line><text class="" x="34.25" y="70.40632761679538" transform=" rotate(0 34.25 70.40632761679538)" text-anchor="end" fill="black" font-size="8pt" >30.0%</text></g><g ><line class="" x1="38.25" x2="45.25" y1="45.76571555292796" y2="45.76571555292796" stroke="black" stroke-width="0.3" ></line><text class="" x="34.25" y="47.76571555292796" transform=" rotate(0 34.25 47.76571555292796)" text-anchor="end" fill="black" font-size="8pt" >35.0%</text></g><g ><line class="" x1="38.25" x2="45.25" y1="23.125103489060507" y2="23.125103489060507" stroke="black" stroke-width="0.3" ></line><text class="" x="34.25" y="25.125103489060507" transform=" rotate(0 34.25 25.125103489060507)" text-anchor="end" fill="black" font-size="8pt" >40.0%</text></g></g></g></g><g class="" ><path class="" stroke-width="1" stroke="#0F5CD0" opacity="1" fill="none" d="M 40,204.25 L 49.397260300542946,200.74329785137004 L 59.10776261485033,172.6150699783164 L 68.8182649291577,172.80159668834992 L 77.58904121304825,155.56652868125354 L 87.29954352735562,132.5491326631183 L 96.69680383152405,112.03119455943222 L 106.40730614583144,98.67588212103253 L 115.80456644999987,109.83017938103669 L 125.51506876430726,97.55672186083173 L 135.22557107861462,98.52666075300564 L 144.6228313827831,64.01921939680633 L 154.33333369709044,36.15212891780021 L 163.73059400125888,34.249556475458405 L 173.44109631556626,33.76458702937114 L 183.15159862987363,15 L 191.92237491376417,39.84535777646366 L 201.63287722807158,52.19342598068212 L 211.03013753224,44.06086142322121 L 220.74063984654737,26.639266706091433 L 230.1379001507158,30.92938103686228 L 239.84840246502318,29.66099940863441 L 249.55890477933056,36.07751823378692 L 258.956165083499,44.99349497338861 L 268.66666739780635,103.74940863394447 L 278.0639277019748,118.00004928050461 L 287.77443001628217,150.11994874827508 L 297.4849323305896,110.31514882712426 L 306.2557086144801,85.6563177606944 L 315.9662109287875,74.80046323674347 L 325.36347123295593,49.283609304158944 L 335.07397354726334,80.0978218016945 L 344.47123385143175,37.2712891780011 L 354.18173616573915,32.83195347920346 L 363.8922384800465,35.36871673565929 L 373.28949878421497,23.207175241474488 L 383.0000010985223,36.5624876798739" ></path></g></g><g class="foreground" ><g transform="translate(94,139)" ><text font-family="Arial" font-size="45" ><tspan stroke="#3A83F1" fill="#3A83F1" > Fund </tspan><tspan stroke="#758D99" fill="#758D99" > KIS </tspan></text></g></g><g style="visibility:hidden;" id="fkchartmeasurer-u4S" ><text x="-10" y="-10" id="fkchartmeasurer-u4S-text" ></text><text text-anchor="middle" class="title" id="fkchartmeasurer-u4S-title" ></text><g class="xAxis" ><g class="axis axis-bottom" ><g class="ticks" ><text class="label-major label-major-bottom xAxisTickLabel" x="-10" y="-10" id="fkchartmeasurer-u4S-label-major-bottom" ></text><text class="label-major label-major-bottom xAxisTickLabel" x="-10" y="-10" id="fkchartmeasurer-u4S-label-major" ></text><text class="label-minor label-minor-bottom xAxisTickLabel" x="-10" y="-10" id="fkchartmeasurer-u4S-label-minor-bottom" ></text><text class="label-minor label-minor-bottom xAxisTickLabel" x="-10" y="-10" id="fkchartmeasurer-u4S-label-minor" ></text></g><text class="axis-label axis-label-bottom xAxisLineLabel" x="-10" y="-10" id="fkchartmeasurer-u4S-axis-label-bottom" ></text><text class="axis-label axis-label-bottom xAxisLineLabel" x="-10" y="-10" id="fkchartmeasurer-u4S-axis-label" ></text><text class="axis-factor axis-factor-bottom xAxisLineLabel" x="-10" y="-10" id="fkchartmeasurer-u4S-axis-factor-bottom" ></text><text class="axis-factor axis-factor-bottom xAxisLineLabel" x="-10" y="-10" id="fkchartmeasurer-u4S-axis-factor" ></text></g><g class="axis axis-top" ><g class="ticks" ><text class="label-major label-major-top xAxisTickLabel" x="-10" y="-10" id="fkchartmeasurer-u4S-label-major-top" ></text><text class="label-major label-major-top xAxisTickLabel" x="-10" y="-10" id="fkchartmeasurer-u4S-label-major" ></text><text class="label-minor label-minor-top xAxisTickLabel" x="-10" y="-10" id="fkchartmeasurer-u4S-label-minor-top" ></text><text class="label-minor label-minor-top xAxisTickLabel" x="-10" y="-10" id="fkchartmeasurer-u4S-label-minor" ></text></g><text class="axis-label axis-label-top xAxisLineLabel" x="-10" y="-10" id="fkchartmeasurer-u4S-axis-label-top" ></text><text class="axis-label axis-label-top xAxisLineLabel" x="-10" y="-10" id="fkchartmeasurer-u4S-axis-label" ></text><text class="axis-factor axis-factor-top xAxisLineLabel" x="-10" y="-10" id="fkchartmeasurer-u4S-axis-factor-top" ></text><text class="axis-factor axis-factor-top xAxisLineLabel" x="-10" y="-10" id="fkchartmeasurer-u4S-axis-factor" ></text></g></g><g class="yAxis" ><g class="axis axis-left" ><g class="ticks" ><text class="label-major label-major-left yAxisTickLabel" x="-10" y="-10" id="fkchartmeasurer-u4S-label-major-left" ></text><text class="label-major label-major-left yAxisTickLabel" x="-10" y="-10" id="fkchartmeasurer-u4S-label-major" ></text><text class="label-minor label-minor-left yAxisTickLabel" x="-10" y="-10" id="fkchartmeasurer-u4S-label-minor-left" ></text><text class="label-minor label-minor-left yAxisTickLabel" x="-10" y="-10" id="fkchartmeasurer-u4S-label-minor" ></text></g><text class="axis-label axis-label-left yAxisLineLabel" x="-10" y="-10" id="fkchartmeasurer-u4S-axis-label-left" ></text><text class="axis-label axis-label-left yAxisLineLabel" x="-10" y="-10" id="fkchartmeasurer-u4S-axis-label" ></text><text class="axis-factor axis-factor-left yAxisLineLabel" x="-10" y="-10" id="fkchartmeasurer-u4S-axis-factor-left" ></text><text class="axis-factor axis-factor-left yAxisLineLabel" x="-10" y="-10" id="fkchartmeasurer-u4S-axis-factor" ></text></g><g class="axis axis-right" ><g class="ticks" ><text class="label-major label-major-right yAxisTickLabel" x="-10" y="-10" id="fkchartmeasurer-u4S-label-major-right" ></text><text class="label-major label-major-right yAxisTickLabel" x="-10" y="-10" id="fkchartmeasurer-u4S-label-major" ></text><text class="label-minor label-minor-right yAxisTickLabel" x="-10" y="-10" id="fkchartmeasurer-u4S-label-minor-right" ></text><text class="label-minor label-minor-right yAxisTickLabel" x="-10" y="-10" id="fkchartmeasurer-u4S-label-minor" ></text></g><text class="axis-label axis-label-right yAxisLineLabel" x="-10" y="-10" id="fkchartmeasurer-u4S-axis-label-right" ></text><text class="axis-label axis-label-right yAxisLineLabel" x="-10" y="-10" id="fkchartmeasurer-u4S-axis-label" ></text><text class="axis-factor axis-factor-right yAxisLineLabel" x="-10" y="-10" id="fkchartmeasurer-u4S-axis-factor-right" ></text><text class="axis-factor axis-factor-right yAxisLineLabel" x="-10" y="-10" id="fkchartmeasurer-u4S-axis-factor" ></text></g></g></g></svg></svg>